<?xml version="1.0"?>
<!DOCTYPE svg PUBLIC "-//W3C//DTD SVG 1.1//EN" "http://www.w3.org/Graphics/SVG/1.1/DTD/svg11.dtd">
<svg width="178.5mm" height="381.5mm" viewBox="0 0 178.5 381.5" xmlns="http://www.w3.org/2000/svg" version="1.1">
<g transform="translate(-10.75,190.75) scale(1,-1)">
<path id="Sketch" d="M 16.5000001424 189.0 A 4.0 4.0 0 0 1 12.5 184.999999595 L 12.5000000001 70.9999783748 A 4.0 4.0 0 0 1 16.4999995253 67.0 L 183.500001042 67.0 A 4.0 4.0 0 0 1 187.5 70.9999994115 L 187.5 185.000000292 A 4.0 4.0 0 0 1 183.499999932 189.0 L 16.5000001424 189.0 " stroke="#000000" stroke-width="0.35 px" style="stroke-width:0.35;stroke-miterlimit:4;stroke-dasharray:none;fill:none;fill-rule: evenodd "/>
<circle cx="183.5" cy="185.0" r="1.75" stroke="#000000" stroke-width="0.35 px" style="stroke-width:0.35;stroke-miterlimit:4;stroke-dasharray:none;fill:none"/>
<circle cx="183.5" cy="110.0" r="1.75" stroke="#000000" stroke-width="0.35 px" style="stroke-width:0.35;stroke-miterlimit:4;stroke-dasharray:none;fill:none"/>
<circle cx="78.5" cy="185.0" r="1.75" stroke="#000000" stroke-width="0.35 px" style="stroke-width:0.35;stroke-miterlimit:4;stroke-dasharray:none;fill:none"/>
<circle cx="78.5" cy="110.0" r="1.75" stroke="#000000" stroke-width="0.35 px" style="stroke-width:0.35;stroke-miterlimit:4;stroke-dasharray:none;fill:none"/>
<circle cx="16.5" cy="185.0" r="1.75" stroke="#000000" stroke-width="0.35 px" style="stroke-width:0.35;stroke-miterlimit:4;stroke-dasharray:none;fill:none"/>
<circle cx="62.5" cy="185.0" r="1.75" stroke="#000000" stroke-width="0.35 px" style="stroke-width:0.35;stroke-miterlimit:4;stroke-dasharray:none;fill:none"/>
<circle cx="16.5" cy="137.5" r="1.75" stroke="#000000" stroke-width="0.35 px" style="stroke-width:0.35;stroke-miterlimit:4;stroke-dasharray:none;fill:none"/>
<circle cx="62.5" cy="137.5" r="1.75" stroke="#000000" stroke-width="0.35 px" style="stroke-width:0.35;stroke-miterlimit:4;stroke-dasharray:none;fill:none"/>
<circle cx="16.5" cy="71.0" r="1.75" stroke="#000000" stroke-width="0.35 px" style="stroke-width:0.35;stroke-miterlimit:4;stroke-dasharray:none;fill:none"/>
<circle cx="183.5" cy="71.0" r="1.75" stroke="#000000" stroke-width="0.35 px" style="stroke-width:0.35;stroke-miterlimit:4;stroke-dasharray:none;fill:none"/>
<path id="Sketch" d="M 75.0 114.5 L 87.0 114.5 L 87.0 148.5 L 75.0 148.5 L 75.0 114.5 " stroke="#000000" stroke-width="0.35 px" style="stroke-width:0.35;stroke-miterlimit:4;stroke-dasharray:none;fill:none;fill-rule: evenodd "/>
<circle cx="78.5" cy="71.0" r="1.75" stroke="#000000" stroke-width="0.35 px" style="stroke-width:0.35;stroke-miterlimit:4;stroke-dasharray:none;fill:none"/>
</g>
<g transform="translate(-10.75,190.75) scale(1,-1)">
<path id="Sketch002" d="M 16.4999998025 -67.0 A 4.0 4.0 0 0 1 12.5 -71.0000002067 L 12.5 -184.999999709 A 4.0 4.0 0 0 1 16.4999997247 -189.0 L 78.5000261558 -189.0 A 4.0 4.0 0 0 1 82.5 -184.999999937 L 82.5 -153.999999758 A 4.0 4.0 0 0 0 86.5000261574 -149.999999927 L 183.500000009 -149.999999927 A 4.0 4.0 0 0 1 187.5 -146.0 L 187.5 -71.0000000709 A 4.0 4.0 0 0 1 183.500000277 -67.0 L 16.4999998025 -67.0 " stroke="#000000" stroke-width="0.35 px" style="stroke-width:0.35;stroke-miterlimit:4;stroke-dasharray:none;fill:none;fill-rule: evenodd "/>
<circle cx="183.5" cy="-71.0" r="1.75" stroke="#000000" stroke-width="0.35 px" style="stroke-width:0.35;stroke-miterlimit:4;stroke-dasharray:none;fill:none"/>
<circle cx="78.5" cy="-71.0" r="1.75" stroke="#000000" stroke-width="0.35 px" style="stroke-width:0.35;stroke-miterlimit:4;stroke-dasharray:none;fill:none"/>
<circle cx="78.5" cy="-146.0" r="1.75" stroke="#000000" stroke-width="0.35 px" style="stroke-width:0.35;stroke-miterlimit:4;stroke-dasharray:none;fill:none"/>
<circle cx="16.5" cy="-71.0" r="1.75" stroke="#000000" stroke-width="0.35 px" style="stroke-width:0.35;stroke-miterlimit:4;stroke-dasharray:none;fill:none"/>
<circle cx="16.5" cy="-185.0" r="1.75" stroke="#000000" stroke-width="0.35 px" style="stroke-width:0.35;stroke-miterlimit:4;stroke-dasharray:none;fill:none"/>
<circle cx="183.5" cy="-146.0" r="1.75" stroke="#000000" stroke-width="0.35 px" style="stroke-width:0.35;stroke-miterlimit:4;stroke-dasharray:none;fill:none"/>
<circle cx="78.5" cy="-185.0" r="1.75" stroke="#000000" stroke-width="0.35 px" style="stroke-width:0.35;stroke-miterlimit:4;stroke-dasharray:none;fill:none"/>
</g>
<g transform="translate(-10.75,190.75) scale(1,-1)">
<path id="Sketch001" d="M 16.4999987683 61.0 A 4.0 4.0 0 0 1 12.5 56.9999998978 L 12.5 -56.9999998974 A 4.0 4.0 0 0 1 16.4999987626 -61.0 L 183.499983832 -61.0 A 4.0 4.0 0 0 1 187.5 -57.0000023646 L 187.5 57.0000023652 A 4.0 4.0 0 0 1 183.499983827 61.0 L 16.4999987683 61.0 " stroke="#000000" stroke-width="0.35 px" style="stroke-width:0.35;stroke-miterlimit:4;stroke-dasharray:none;fill:none;fill-rule: evenodd "/>
<circle cx="183.5" cy="57.0" r="1.75" stroke="#000000" stroke-width="0.35 px" style="stroke-width:0.35;stroke-miterlimit:4;stroke-dasharray:none;fill:none"/>
<circle cx="16.5" cy="57.0" r="1.75" stroke="#000000" stroke-width="0.35 px" style="stroke-width:0.35;stroke-miterlimit:4;stroke-dasharray:none;fill:none"/>
<circle cx="16.5" cy="-57.0" r="1.75" stroke="#000000" stroke-width="0.35 px" style="stroke-width:0.35;stroke-miterlimit:4;stroke-dasharray:none;fill:none"/>
<circle cx="183.5" cy="-57.0" r="1.75" stroke="#000000" stroke-width="0.35 px" style="stroke-width:0.35;stroke-miterlimit:4;stroke-dasharray:none;fill:none"/>
<circle cx="117.5" cy="47.5" r="1.75" stroke="#000000" stroke-width="0.35 px" style="stroke-width:0.35;stroke-miterlimit:4;stroke-dasharray:none;fill:none"/>
<circle cx="73.0" cy="47.5" r="1.75" stroke="#000000" stroke-width="0.35 px" style="stroke-width:0.35;stroke-miterlimit:4;stroke-dasharray:none;fill:none"/>
<circle cx="73.0" cy="-47.5" r="1.75" stroke="#000000" stroke-width="0.35 px" style="stroke-width:0.35;stroke-miterlimit:4;stroke-dasharray:none;fill:none"/>
<circle cx="117.5" cy="-47.5" r="1.75" stroke="#000000" stroke-width="0.35 px" style="stroke-width:0.35;stroke-miterlimit:4;stroke-dasharray:none;fill:none"/>
</g>
</svg>